HIERARCHY
ROOT Hips
{
  OFFSET 6.15151 102.214 174.802
  CHANNELS 6 Xposition Yposition Zposition Zrotation Xrotation Yrotation
  JOINT RightUpLeg
  {
    OFFSET -8.9458 -8.66707 0.101652
    CHANNELS 3 Zrotation Xrotation Yrotation
    JOINT RightLeg
    {
      OFFSET 0 -44.4227 1.3727
      CHANNELS 3 Zrotation Xrotation Yrotation
      JOINT RightFoot
      {
        OFFSET 0.253549 -42.0924 -1.46059
        CHANNELS 3 Zrotation Xrotation Yrotation
        JOINT RightToes
        {
          OFFSET 0.04 -4.41509 8.4991
          CHANNELS 3 Zrotation Xrotation Yrotation
          End Site
          {
            OFFSET -0.08 -0.137448 9.77979
          }
        }
      }
    }
  }
  JOINT Spine
  {
    OFFSET 0 11.8905 0
    CHANNELS 3 Zrotation Xrotation Yrotation
    JOINT Spine1
    {
      OFFSET 0 25.6574 0.127663
      CHANNELS 3 Zrotation Xrotation Yrotation
      JOINT HEad
      {
        OFFSET 0 8.73416 0.011341
        CHANNELS 3 Zrotation Xrotation Yrotation
        End Site
        {
          OFFSET -0.29 12.7742 2.51395
        }
      }
      JOINT LeftShoulder1
      {
        OFFSET 8.99 -0.362252 -0.22
        CHANNELS 3 Zrotation Xrotation Yrotation
        JOINT LeftArm
        {
          OFFSET 10.2827 -0.00338 0.322123
          CHANNELS 3 Zrotation Xrotation Yrotation
          JOINT LeftForeArm
          {
            OFFSET 32.7669 0.099144 -1.42434
            CHANNELS 3 Zrotation Xrotation Yrotation
            JOINT LeftHand
            {
              OFFSET 27.5643 0.085362 1.02216
              CHANNELS 3 Zrotation Xrotation Yrotation
              End Site
              {
                OFFSET 16.7443 -0.6 1.50291
              }
            }
          }
        }
      }
      JOINT RightShoulder
      {
        OFFSET -8.99 -0.362252 -0.22
        CHANNELS 3 Zrotation Xrotation Yrotation
        JOINT RightArm
        {
          OFFSET -10.2827 -0.00338 0.322123
          CHANNELS 3 Zrotation Xrotation Yrotation
          JOINT RightForeArm
          {
            OFFSET -32.8971 0.099144 -1.42434
            CHANNELS 3 Zrotation Xrotation Yrotation
            JOINT RightHand
            {
              OFFSET -27.4921 0.085362 1.02216
              CHANNELS 3 Zrotation Xrotation Yrotation
              End Site
              {
                OFFSET -16.6312 -0.6 1.50291
              }
            }
          }
        }
      }
    }
  }
  JOINT LeftUpLeg
  {
    OFFSET 8.9458 -8.66707 0.101652
    CHANNELS 3 Zrotation Xrotation Yrotation
    JOINT LeftLeg
    {
      OFFSET 0 -44.4227 1.3727
      CHANNELS 3 Zrotation Xrotation Yrotation
      JOINT LeftFoot
      {
        OFFSET -0.253549 -42.0924 -1.46059
        CHANNELS 3 Zrotation Xrotation Yrotation
        JOINT LeftToes
        {
          OFFSET -0.04 -4.41509 8.4991
          CHANNELS 3 Zrotation Xrotation Yrotation
          End Site
          {
            OFFSET 0.08 -0.047448 9.77979
          }
        }
      }
    }
  }
}
MOTION
Frames:	19
Frame Time:	0.0166667
6.15151 102.214 174.802 0.134827 -0.0292289 177.102 5.13696 -21.1373 0.136225 -0.106317 24.1568 -5.34087 0.565009 -6.64608 -0.168386 0.0462048 0.000533964 0.662642 0.103155 3.43863 -0.658177 -2.33151 -5.42718 -0.2312 1.71448 11.3938 8.15151 -3.72721e-016 0 7.95139e-016 -76.4273 -34.4403 0.796647 -27.9965 12.9427 -7.41878 0.368473 9.90896 -0.00117926 -4.03941 0.633504 9.35212 84.9687 -25.8902 -6.1767 23.9623 14.2448 12.9265 -0.369625 9.91382 0.00119885 -0.422292 12.2342 0.000756724 -3.22156 26.2272 -2.79015 1.57861 -4.76873 0.0512763 1.25652e-011 3.37139e-013 -4.81059e-012 
6.40128 102.469 173.097 0.285503 0.120642 177.229 5.07829 -19.6522 0.480221 0.626796 23.8781 -6.12138 0.440983 -7.67105 -0.176207 0.0769402 -0.256423 0.289109 0.422952 3.52737 -0.70239 -2.24223 -5.45761 -0.234351 1.73819 11.4906 8.20377 -3.72721e-016 0 -3.97569e-016 -75.8443 -35.6408 2.50525 -27.8186 12.6371 -6.0792 0.368473 9.90896 -0.00117926 -4.42822 0.590688 9.34755 85.3819 -25.5754 -6.16607 24.0742 14.431 13.804 -0.369625 9.91382 0.00119885 0.22991 10.3812 0.299121 -3.34249 30.6372 -3.18328 0.77257 -2.01682 0.0311572 0.132883 2.85094 -0.328887 
6.62925 102.673 171.438 0.434983 0.211983 177.296 5.01121 -18.3397 0.765799 1.31777 23.7436 -6.72362 0.365476 -8.71995 -0.180864 0.100499 -0.473993 -0.0269338 0.768188 3.60612 -0.746705 -2.113 -5.46657 -0.235016 1.70207 11.4449 8.30967 3.47873e-016 0 3.97569e-016 -75.2412 -36.8074 4.21291 -27.7041 12.3398 -4.82924 0.368473 9.90896 -0.00117926 -4.91269 0.540536 9.48594 85.8767 -25.1851 -6.06543 24.1832 14.6232 14.7167 -0.369625 9.91382 0.00119885 0.788549 8.29925 0.733349 -3.24898 35.2228 -3.70976 0.118396 0.430443 0.0165766 0.146277 5.49241 -0.119005 
6.79326 102.716 169.912 0.597553 0.147532 177.186 4.98323 -17.5522 1.01814 1.96234 24.1035 -6.94953 0.456977 -9.87585 -0.174971 0.107924 -0.548432 -0.13763 1.22289 3.66641 -0.799554 -1.85757 -5.3956 -0.228342 1.48578 10.957 8.57885 1.73937e-016 3.97569e-016 -0 -74.7602 -37.966 5.79768 -27.7901 12.0618 -3.72785 0.368473 9.90896 -0.00117926 -5.7117 0.466556 10.0325 86.6464 -24.576 -5.73522 24.2969 14.8444 15.753 -0.369625 9.91382 0.00119885 1.09596 5.54054 1.763 -2.52849 40.4788 -4.99095 -0.187742 2.2272 0.0216008 -0.395912 7.97635 1.84671 
6.9326 102.723 168.439 0.72844 -0.015177 177.008 4.92955 -16.9253 0.964214 2.45378 24.505 -6.70093 0.55645 -10.9853 -0.167503 0.11752 -0.633372 -0.256555 1.63603 3.69359 -0.83599 -1.57496 -5.33423 -0.218944 1.22469 10.3576 8.89589 -1.36664e-016 -1.98785e-016 1.59028e-015 -74.2743 -39.0146 7.40434 -27.9964 11.8455 -2.93947 0.368473 9.90896 -0.00117926 -6.5475 0.389385 10.7634 87.4147 -23.8708 -5.24395 24.4014 15.0638 16.784 -0.369625 9.91382 0.00119885 1.33501 2.53548 2.55678 -1.54174 45.6136 -5.72388 -0.139359 3.19245 0.025286 -1.18221 9.28462 4.12522 
7.07531 102.785 166.956 0.785676 -0.282521 176.825 4.79076 -16.2356 0.0485403 2.59287 24.6242 -5.46571 0.499909 -11.9169 -0.166422 0.147735 -0.921103 -0.665264 1.8545 3.65525 -0.821748 -1.32091 -5.40503 -0.208916 1.01016 9.92203 9.19163 2.48481e-017 0 -0 -73.6776 -39.8508 9.17795 -28.2983 11.7419 -2.67543 0.368473 9.90896 -0.00117926 -7.16843 0.329252 11.5763 87.8888 -23.1452 -4.62251 24.501 15.262 17.7043 -0.369625 9.91382 0.00119885 1.40889 -0.439915 2.2583 -1.45668 49.9975 -3.66314 0.410971 2.83199 0.00182104 -1.56547 7.77994 5.3284 
7.21303 102.896 165.497 0.774022 -0.559945 176.66 4.64082 -15.4033 -0.845073 2.64158 24.3974 -4.27939 0.418272 -12.6877 -0.167657 0.174581 -1.19175 -1.01213 1.96849 3.59632 -0.793213 -1.13887 -5.45054 -0.200949 0.827978 9.51379 9.43793 -1.2424e-017 3.97569e-016 -0 -73.0694 -40.4774 10.9749 -28.6791 11.7399 -2.85151 0.368473 9.90896 -0.00117926 -7.72028 0.270217 12.3717 88.3147 -22.3951 -3.84013 24.5647 15.4408 18.5284 -0.369625 9.91382 0.00119885 1.33124 -3.38212 1.44514 -2.35678 53.6907 -0.102112 1.24184 1.73963 -0.0200539 -1.80146 5.48603 6.34145 
7.34822 103.112 164.074 0.67932 -0.71488 176.584 4.47734 -14.1478 -0.79248 2.88238 23.4844 -4.35295 0.409186 -13.2207 -0.170072 0.182696 -1.20497 -0.893827 1.99327 3.55282 -0.773404 -1.1067 -5.28972 -0.197548 0.72466 9.02971 9.53018 2.48481e-017 -3.97569e-016 -7.95139e-016 -72.5433 -40.8269 12.6896 -29.112 11.8652 -3.55826 0.368473 9.90896 -0.00117926 -8.25215 0.204366 12.9537 88.8378 -21.6091 -2.86315 24.5801 15.6003 19.2477 -0.369625 9.91382 0.00119885 1.18484 -6.15308 0.27735 -3.90542 56.5498 3.89418 2.20749 0.312583 -0.0207593 -2.1454 4.27278 7.67672 
7.47646 103.334 162.69 0.52398 -0.868184 176.51 4.30674 -12.8809 -0.515991 3.03917 22.4719 -4.64809 0.408868 -13.6659 -0.173679 0.192481 -1.21511 -0.746428 2.00023 3.51906 -0.768149 -1.17713 -5.11588 -0.201383 0.606672 8.64509 9.62992 8.69683e-017 -9.93923e-017 7.95139e-016 -72.0627 -41.0407 14.316 -29.5727 12.0445 -4.4888 0.368473 9.90896 -0.00117926 -8.80291 0.127905 13.509 89.4634 -20.8811 -1.73052 24.4974 15.7275 19.8251 -0.369625 9.91382 0.00119885 0.950366 -8.86142 -0.896083 -5.90249 58.6182 7.97452 3.2341 -1.35354 0.00114163 -2.50172 2.90903 9.11319 
7.59566 103.467 161.365 0.302287 -1.1282 176.348 4.18276 -12.0243 -0.516114 2.89532 21.9487 -4.35995 0.368499 -14.1654 -0.176871 0.218347 -1.43791 -0.966994 2.07559 3.50704 -0.800317 -1.35713 -5.10466 -0.219376 0.379834 8.556 9.90932 4.34841e-017 9.93923e-017 -0 -71.5598 -41.2509 15.8624 -30.0513 12.211 -5.34656 0.368473 9.90896 -0.00117926 -9.44054 0.0328471 14.2257 90.3171 -20.3599 -0.419664 24.2119 15.7923 20.1511 -0.369625 9.91382 0.00119885 0.758543 -11.6239 -1.62531 -7.81939 60.0595 11.1076 4.24055 -3.06139 0.0605183 -2.81144 0.615955 10.7082 
7.70133 103.556 160.066 0.078037 -1.3995 176.178 4.10093 -11.2634 -0.496433 2.67619 21.5451 -4.03911 0.342266 -14.6657 -0.177887 0.252505 -1.74861 -1.26951 2.19004 3.49969 -0.841806 -1.56173 -5.128 -0.241248 0.0994588 8.59698 10.2285 -3.72721e-017 0 -7.95139e-016 -71.139 -41.419 17.2364 -30.495 12.3804 -6.18774 0.368473 9.90896 -0.00117926 -10.1229 -0.0753133 14.9033 91.2292 -19.872 0.935931 23.8783 15.8468 20.4333 -0.369625 9.91382 0.00119885 0.58221 -14.2902 -2.01355 -9.19852 60.8214 13.2505 5.10896 -4.71895 0.137231 -2.97419 -2.04992 12.1754 
7.78399 103.613 158.76 -0.0495035 -1.60954 176.096 4.09276 -10.3844 -0.24538 2.5633 21.0553 -4.11606 0.410567 -15.1753 -0.171969 0.28823 -2.03042 -1.4241 2.36433 3.48822 -0.870163 -1.67939 -5.11107 -0.257312 -0.215217 8.66373 10.4566 4.11546e-017 3.10601e-018 7.95139e-016 -70.9024 -41.5325 18.3251 -30.8318 12.5565 -6.99555 0.368473 9.90896 -0.00117926 -10.8344 -0.193298 15.3071 92.0486 -19.2687 2.18151 23.6374 15.9346 20.8652 -0.369625 9.91382 0.00119885 0.455352 -16.7637 -1.88469 -9.29057 60.9194 13.8181 5.64286 -6.15046 0.217334 -2.93212 -5.0143 13.0855 
7.85656 103.651 157.465 -0.186115 -1.79849 175.968 4.06425 -9.50539 -0.017785 2.42589 20.5846 -4.13168 0.445334 -15.6511 -0.170047 0.346896 -2.47538 -1.65924 2.53463 3.45976 -0.891309 -1.79659 -5.0698 -0.272706 -0.547051 8.77028 10.7396 2.17421e-017 -2.48481e-017 7.95139e-016 -70.7923 -41.6637 19.1991 -31.1133 12.7104 -7.69152 0.368473 9.90896 -0.00117926 -11.5687 -0.32374 15.7283 92.8199 -18.6415 3.39375 23.4135 16.0399 21.3834 -0.369625 9.91382 0.00119885 0.369829 -19.0056 -1.5871 -8.95167 60.2357 13.8146 5.98573 -7.40984 0.296779 -2.85715 -7.67841 13.9125 
7.93063 103.693 156.194 -0.424559 -1.98115 175.634 3.94165 -8.68528 -0.0647937 2.16155 20.1843 -3.59885 0.304367 -16.0481 -0.185567 0.440221 -3.34904 -2.40287 2.63225 3.38649 -0.899748 -1.95932 -4.97873 -0.288444 -0.881595 8.93312 11.2456 2.23633e-016 -9.93923e-017 7.95139e-016 -70.7926 -41.8848 19.9065 -31.3947 12.8068 -8.16741 0.368473 9.90896 -0.00117926 -12.351 -0.476942 16.4831 93.5744 -18.0292 4.63766 23.162 16.1573 21.9737 -0.369625 9.91382 0.00119885 0.229273 -20.9339 -1.43769 -9.0025 58.578 14.3042 6.20906 -8.59919 0.37269 -2.89692 -9.18905 14.9637 
8.00074 103.722 154.925 -0.711498 -2.16037 175.264 3.74788 -7.89 -0.176602 1.91357 19.8043 -3.04831 0.108831 -16.381 -0.207533 0.548058 -4.31199 -2.82994 2.69253 3.30442 -0.907292 -2.17753 -4.8871 -0.307204 -1.19366 9.03854 11.7768 -1.2424e-016 9.93923e-017 -7.95139e-016 -70.854 -42.1672 20.42 -31.6029 12.8725 -8.49357 0.368473 9.90896 -0.00117926 -13.0628 -0.624005 17.262 94.2134 -17.4386 5.79756 22.9297 16.2985 22.6816 -0.369625 9.91382 0.00119885 0.077847 -22.5752 -1.41608 -9.09504 56.0536 14.8197 6.32851 -9.3983 0.426853 -3.00331 -10.2193 16.1841 
8.06761 103.733 153.639 -1.04429 -2.35824 174.998 3.43972 -7.10516 -0.197613 1.80536 19.3685 -3.02167 -0.0845221 -16.5825 -0.23248 0.757529 -5.14259 -1.77719 2.72049 3.24792 -0.933022 -2.52508 -4.87024 -0.336588 -1.43922 8.96845 12.1368 2.36057e-016 9.93923e-017 1.59028e-015 -70.8925 -42.5261 20.7217 -31.6549 12.9172 -8.67877 0.368473 9.90896 -0.00117926 -13.5368 -0.730236 17.8362 94.6104 -16.9122 6.74436 22.7559 16.4799 23.5848 -0.369625 9.91382 0.00119885 -0.102569 -23.9474 -1.67643 -9.24782 52.6571 15.3127 6.39788 -9.38918 0.432642 -3.16854 -11.3326 17.9344 
8.12433 103.714 152.345 -1.35756 -2.53271 174.757 3.10845 -6.33045 -0.221914 1.74708 19.021 -2.98351 -0.223603 -16.8545 -0.250978 0.96687 -5.76171 -0.670788 2.73831 3.19408 -0.949622 -2.85634 -4.82432 -0.362841 -1.63997 8.75966 12.4851 2.23633e-016 1.98785e-016 -2.38542e-015 -71.0087 -42.8985 20.8221 -31.629 12.9539 -8.80082 0.368473 9.90896 -0.00117926 -13.9586 -0.827874 18.2799 94.9039 -16.3877 7.58997 22.6106 16.6751 24.5743 -0.369625 9.91382 0.00119885 -0.249562 -24.9926 -2.02735 -9.28027 48.5487 15.7461 6.36934 -8.96733 0.411072 -3.29858 -11.969 19.3438 
8.16001 103.652 151.046 -1.58094 -2.61557 174.494 2.83078 -5.53304 -0.270662 1.70964 18.905 -2.48867 -0.195684 -17.4511 -0.246895 0.964967 -5.86432 -0.888447 2.77165 3.12856 -0.932242 -3.02658 -4.60448 -0.370498 -1.8045 8.35975 12.9722 -1.98785e-016 0 -0 -71.3189 -43.2422 20.6779 -31.5659 13.0038 -8.95756 0.368473 9.90896 -0.00117926 -14.5232 -0.949077 18.5623 95.2344 -15.7678 8.44021 22.4773 16.8659 25.5663 -0.369625 9.91382 0.00119885 -0.256309 -25.61 -2.39661 -9.18096 43.8152 16.3453 6.1826 -8.40284 0.373363 -3.34289 -11.6924 19.4113 
8.18735 103.547 149.735 -1.72604 -2.70735 174.243 2.6177 -4.79604 -0.405769 1.66499 18.9372 -1.81785 -0.125462 -18.1481 -0.23681 0.920616 -5.91494 -1.43325 2.81535 3.06 -0.892588 -3.10666 -4.40924 -0.372283 -1.92496 7.91732 13.4299 1.73937e-016 -1.98785e-016 -0 -71.6979 -43.5027 20.425 -31.4927 13.0504 -9.09827 0.368473 9.90896 -0.00117926 -15.0306 -1.05832 18.7688 95.4429 -15.1949 9.17691 22.3662 17.0544 26.5599 -0.369625 9.91382 0.00119885 -0.191601 -25.9515 -2.5481 -8.62814 38.6714 16.422 5.93549 -7.65379 0.323597 -3.38164 -10.8198 18.8383 
